HIERARCHY
ROOT Hip
{
	OFFSET 0 1.131 0.0052
	CHANNELS 6 Xposition Yposition Zposition Xrotation Yrotation Zrotation
	JOINT Abdomen
	{
		OFFSET 0 -0.047353 -0.05
		CHANNELS 3 Xrotation Zrotation Yrotation
		JOINT Chest
		{
			OFFSET 0 0.132153 0.007439
			CHANNELS 3 Xrotation Zrotation Yrotation
			JOINT Neck
			{
				OFFSET 0 0.3078 0.006161
				CHANNELS 3 Xrotation Zrotation Yrotation
				JOINT Head_comp
				{
					OFFSET 0 0.0884 0.013
					CHANNELS 3 Xrotation Yrotation Zrotation
					End Site
					{
						OFFSET -0 0.156 0.0624
					}
				}
			}
			JOINT Left_Collar
			{
				OFFSET 0.02282 0.250342 0.017193
				CHANNELS 2 Yrotation Zrotation
				JOINT Left_Shoulder
				{
					OFFSET 0.15421 0 0
					CHANNELS 3 Xrotation Yrotation Zrotation
					JOINT Left_Forearm
					{
						OFFSET 0.265212 0 0
						CHANNELS 2 Yrotation Xrotation
						JOINT Left_Hand
						{
							OFFSET 0.27571 0 0
							CHANNELS 2 Zrotation Yrotation
							JOINT L1ProxPhalanx
							{
								OFFSET 0.014142 0.001733 0.014142
								CHANNELS 3 Yrotation Zrotation Xrotation
								JOINT L1MidPhalanx
								{
									OFFSET 0.04 0 0
									CHANNELS 1 Zrotation
									JOINT L1DistPhalanx
									{
										OFFSET 0.035 0 0
										CHANNELS 1 Zrotation
										End Site
										{
											OFFSET 0.029 -0 -0
										}
									}
								}
							}
							JOINT L2ProxPhalanx
							{
								OFFSET 0.0821037 0.001578 0.0219996
								CHANNELS 2 Yrotation Zrotation
								JOINT L2MidPhalanx
								{
									OFFSET 0.04 0 0
									CHANNELS 1 Zrotation
									JOINT L2DistPhalanx
									{
										OFFSET 0.028 0 0
										CHANNELS 1 Zrotation
										End Site
										{
											OFFSET 0.02 -0 -0
										}
									}
								}
							}
							JOINT L3ProxPhalanx
							{
								OFFSET 0.083 0 0
								CHANNELS 2 Yrotation Zrotation
								JOINT L3MidPhalanx
								{
									OFFSET 0.053 0 0
									CHANNELS 1 Zrotation
									JOINT L3DistPhalanx
									{
										OFFSET 0.03 0 0
										CHANNELS 1 Zrotation
										End Site
										{
											OFFSET 0.023 -0 -0
										}
									}
								}
							}
							JOINT L4ProxPhalanx
							{
								OFFSET 0.077274 -0.000761 -0.0207055
								CHANNELS 2 Yrotation Zrotation
								JOINT L4MidPhalanx
								{
									OFFSET 0.05 0 0
									CHANNELS 1 Zrotation
									JOINT L4DistPhalanx
									{
										OFFSET 0.03 0 0
										CHANNELS 1 Zrotation
										End Site
										{
											OFFSET 0.023 -0 -0
										}
									}
								}
							}
							JOINT L5ProxPhalanx
							{
								OFFSET 0.0675499 -0.001644 -0.039
								CHANNELS 2 Yrotation Zrotation
								JOINT L5MidPhalanx
								{
									OFFSET 0.04 0 0
									CHANNELS 1 Zrotation
									JOINT L5DistPhalanx
									{
										OFFSET 0.021 0 0
										CHANNELS 1 Zrotation
										End Site
										{
											OFFSET 0.022 -0 -0
										}
									}
								}
							}
						}
					}
				}
			}
			JOINT Right_Collar
			{
				OFFSET -0.02282 0.250342 0.017193
				CHANNELS 2 Yrotation Zrotation
				JOINT Right_Shoulder
				{
					OFFSET -0.15421 0 0
					CHANNELS 3 Xrotation Yrotation Zrotation
					JOINT Right_Forearm
					{
						OFFSET -0.265212 0 0
						CHANNELS 2 Yrotation Xrotation
						JOINT Right_Hand
						{
							OFFSET -0.27571 3e-006 0
							CHANNELS 2 Zrotation Yrotation
							JOINT R1ProxPhalanx
							{
								OFFSET -0.014142 0.001733 0.014142
								CHANNELS 3 Yrotation Zrotation Xrotation
								JOINT R1MidPhalanx
								{
									OFFSET -0.04 0 0
									CHANNELS 1 Zrotation
									JOINT R1DistPhalanx
									{
										OFFSET -0.035 0 0
										CHANNELS 1 Zrotation
										End Site
										{
											OFFSET -0.029 -0 -0
										}
									}
								}
							}
							JOINT R2ProxPhalanx
							{
								OFFSET -0.0821037 0.001578 0.0219996
								CHANNELS 2 Yrotation Zrotation
								JOINT R2MidPhalanx
								{
									OFFSET -0.04 0 0
									CHANNELS 1 Zrotation
									JOINT R2DistPhalanx
									{
										OFFSET -0.028 0 0
										CHANNELS 1 Zrotation
										End Site
										{
											OFFSET -0.02 -0 -0
										}
									}
								}
							}
							JOINT R3ProxPhalanx
							{
								OFFSET -0.083 0 0
								CHANNELS 2 Yrotation Zrotation
								JOINT R3MidPhalanx
								{
									OFFSET -0.053 0 0
									CHANNELS 1 Zrotation
									JOINT R3DistPhalanx
									{
										OFFSET -0.03 0 0
										CHANNELS 1 Zrotation
										End Site
										{
											OFFSET -0.023 -0 -0
										}
									}
								}
							}
							JOINT R4ProxPhalanx
							{
								OFFSET -0.077274 -0.000761 -0.0207055
								CHANNELS 2 Yrotation Zrotation
								JOINT R4MidPhalanx
								{
									OFFSET -0.05 0 0
									CHANNELS 1 Zrotation
									JOINT R4DistPhalanx
									{
										OFFSET -0.03 0 0
										CHANNELS 1 Zrotation
										End Site
										{
											OFFSET -0.023 -0 -0
										}
									}
								}
							}
							JOINT R5ProxPhalanx
							{
								OFFSET -0.0675499 -0.001644 -0.039
								CHANNELS 2 Yrotation Zrotation
								JOINT R5MidPhalanx
								{
									OFFSET -0.04 0 0
									CHANNELS 1 Zrotation
									JOINT R5DistPhalanx
									{
										OFFSET -0.021 0 0
										CHANNELS 1 Zrotation
										End Site
										{
											OFFSET -0.022 -0 -0
										}
									}
								}
							}
						}
					}
				}
			}
		}
	}
	JOINT Left_Thigh
	{
		OFFSET 0.1118 -0.1612 -0.0442
		CHANNELS 3 Xrotation Zrotation Yrotation
		JOINT Left_Shin
		{
			OFFSET 0 -0.477856 0
			CHANNELS 1 Xrotation
			JOINT Left_Foot
			{
				OFFSET 0 -0.431952 0
				CHANNELS 2 Xrotation Zrotation
				JOINT Left_Toe
				{
					OFFSET 0 -0.0442 0.119
					CHANNELS 1 Xrotation
					End Site
					{
						OFFSET -0 -0 0.07
					}
				}
			}
		}
	}
	JOINT Right_Thigh
	{
		OFFSET -0.1118 -0.1612 -0.0442
		CHANNELS 3 Xrotation Zrotation Yrotation
		JOINT Right_Shin
		{
			OFFSET 0 -0.477856 0
			CHANNELS 1 Xrotation
			JOINT Right_Foot
			{
				OFFSET 0 -0.431952 0
				CHANNELS 2 Xrotation Zrotation
				JOINT Right_Toe
				{
					OFFSET 0 -0.0442 0.119
					CHANNELS 1 Xrotation
					End Site
					{
						OFFSET -0 -0 0.07
					}
				}
			}
		}
	}
}
MOTION
Frames: 13
Frame Time: 0.009975
-0.101351 -0.0603097 0.0606505 -5.32292e-013 1.21601e-007 -5.10821e-006 0 0 0 0 0 0 0 0 0 0 0 0 0 0 -0 0 -0 0 0 0 0 -36.7832 -29.9624 77.4898 -4.76427 -12.2444 -6.63439 -16.4575 -31.3511 -13.5114 -0.647911 -24.507 -18.2419 -18.0941 9.02909 -22.0218 -38.2405 -19.3412 17.3445 -18.4185 -40.523 -37.4487 0 0 -0 0 -0 0 0 0 0 37.9386 28.008 73.698 26.2405 28.4472 13.118 18.2167 29.0248 19.6359 0 22.4358 32.6146 28.1246 -8.63175 30.7051 32.2053 23.7634 -7.83088 26.7354 35.1526 30.0193 1.35227 -0.658014 -0.0155328 0.0240216 -1.3762 0.658202 0 1.36367 -0.65801 -0.0156637 2.83165e-006 -1.36358 0.658202 0 
-0.101351 -0.0603097 0.0606505 -5.32292e-013 1.21601e-007 -5.10821e-006 0 0 0 0 0 0 0 0 0 0 0 0 0 0 -0 0 -0 0 0 0 0 -36.7832 -29.9624 77.4898 -4.76427 -12.2444 -6.63439 -16.4575 -31.3511 -13.5114 -0.647911 -24.507 -18.2419 -18.0941 9.02909 -22.0218 -38.2405 -19.3412 17.3445 -18.4185 -40.523 -37.4487 0 0 -0 0 -0 0 0 0 0 37.9386 28.008 73.698 26.2405 28.4472 13.118 18.2167 29.0248 19.6359 0 22.4358 32.6146 28.1246 -8.63175 30.7051 32.2053 23.7634 -7.83088 26.7354 35.1526 30.0193 1.35227 -0.658014 -0.0155328 0.0240216 -1.3762 0.658202 0 1.36367 -0.65801 -0.0156637 2.83165e-006 -1.36358 0.658202 0 
-0.100291 -0.0600857 0.0329017 1.54951e-012 -3.42523e-008 -5.08407e-006 0 -0 0 0 -0 0 0 -0 0 -0.710172 0.283614 -8.83264e-006 -7.81655 -32.8682 -23.1634 -35.6158 -49.028 -37.0052 8.81035 5.75162 4.06301 -88.7016 30.0508 81.2069 -22.5785 -25.0214 7.05144 1.43226 -10.4665 -4.83761 2.79234 0.161613 -4.46669 -0.842181 -1.83862 -13.0173 11.3187 1.50729 -3.70644 -42.8238 44.2143 17.0623 11.3596 24.6193 -15.6288 39.5129 44.6457 42.6297 3.48038 2.46417 -3.42649 76.6157 -12.3212 84.0209 13.8482 7.93963 -5.26223 -0.946711 8.46612 6.09701 -6.0005 0.0984131 0.811482 4.41501 -0.817633 14.4112 -7.97046 -6.01079 -1.29626 39.9876 -41.877 -14.9225 -0.395424 -0.724831 0.00501493 0.0239015 0.371491 0.724853 0 -0.384075 -0.724832 0.00487101 0 0.384045 0.724853 0 
-0.100422 -0.0600919 0.0317713 1.55728e-012 -3.44244e-008 -5.10962e-006 0 -0 0 0 -0 0 0 -0 0 -0.71158 0.287675 3.75701e-010 -7.85474 -33.0331 -21.8282 -36.05 -46.2204 -38.5219 8.85306 5.78051 4.08341 -88.9084 30.3171 81.3086 -22.516 -25.0466 7.09087 1.5899 -10.3181 -4.78655 2.806 0.323148 -4.28813 -0.755961 -1.85524 -12.922 11.5766 1.60531 -3.75476 -42.9181 44.6073 17.2485 11.4158 24.7426 -14.3745 39.6441 42.1353 43.8955 3.49705 2.47655 -3.44371 76.7349 -12.5026 84.078 13.7419 7.87903 -5.29293 -1.10203 8.30766 6.05227 -6.02987 -0.0621086 0.614555 4.34674 -0.81423 14.3229 -8.21152 -6.13145 -1.27277 40.0679 -42.2583 -15.098 -0.466676 -0.71655 0.00583629 0.0240216 0.442618 0.716579 0 -0.45527 -0.716551 0.00569365 0 0.455235 0.716579 0 
-0.100441 -0.0600919 0.0317406 -3.60867e-013 -4.06479e-008 -5.10956e-006 0 -0 0 0 -0 0 0 -0 0 -0.711546 0.287984 4.36178e-013 -7.85474 -33.0331 -21.8176 -36.0515 -46.2006 -38.532 8.85306 5.78051 4.08341 -88.9084 30.3171 81.3086 -22.516 -25.0466 7.09087 1.5899 -10.3181 -4.78655 2.806 0.323148 -4.28813 -0.755961 -1.85524 -12.922 11.5766 1.60531 -3.75476 -42.9181 44.6073 17.2485 11.4158 24.7426 -14.365 39.6433 42.1182 43.9035 3.49705 2.47655 -3.44371 76.7349 -12.5026 84.078 13.7419 7.87903 -5.29293 -1.10203 8.30766 6.05227 -6.02987 -0.0621086 0.614555 4.34674 -0.81423 14.3229 -8.21152 -6.13145 -1.27277 40.0679 -42.2583 -15.098 -0.468609 -0.715363 0.0058508 0.0240216 0.444551 0.715392 0 -0.457203 -0.715364 0.0057084 1.69047e-006 0.457166 0.715392 0 
-0.100441 -0.0600919 0.0317402 5.50157e-013 -4.07749e-008 -5.10956e-006 0 -0 0 0 -0 0 0 -0 0 -0.711546 0.287997 3.78162e-016 -7.85474 -33.0331 -21.8176 -36.0515 -46.2006 -38.532 8.85306 5.78051 4.08341 -88.9084 30.3171 81.3086 -22.516 -25.0466 7.09087 1.5899 -10.3181 -4.78655 2.806 0.323148 -4.28813 -0.755961 -1.85524 -12.922 11.5766 1.60531 -3.75476 -42.9181 44.6073 17.2485 11.4158 24.7426 -14.365 39.6433 42.1182 43.9035 3.49705 2.47655 -3.44371 76.7349 -12.5026 84.078 13.7419 7.87903 -5.29293 -1.10203 8.30766 6.05227 -6.02987 -0.0621086 0.614555 4.34674 -0.81423 14.3229 -8.21152 -6.13145 -1.27277 40.0679 -42.2583 -15.098 -0.468635 -0.715342 0.00585096 0.0240216 0.444577 0.715371 0 -0.457229 -0.715344 0.00570857 1.70755e-006 0.457192 0.715371 0 
-0.100441 -0.0600919 0.0317402 -2.0264e-013 -4.07759e-008 -5.10956e-006 0 -0 0 0 -0 0 0 -0 0 -0.711546 0.287997 3.88256e-019 -7.85474 -33.0331 -21.8176 -36.0515 -46.2006 -38.532 8.85306 5.78051 4.08341 -88.9084 30.3171 81.3086 -22.516 -25.0466 7.09087 1.5899 -10.3181 -4.78655 2.806 0.323148 -4.28813 -0.755961 -1.85524 -12.922 11.5766 1.60531 -3.75476 -42.9181 44.6073 17.2485 11.4158 24.7426 -14.365 39.6433 42.1182 43.9035 3.49705 2.47655 -3.44371 76.7349 -12.5026 84.078 13.7419 7.87903 -5.29293 -1.10203 8.30766 6.05227 -6.02987 -0.0621086 0.614555 4.34674 -0.81423 14.3229 -8.21152 -6.13145 -1.27277 40.0679 -42.2583 -15.098 -0.468635 -0.715342 0.00585096 0.0240216 0.444577 0.715371 0 -0.457229 -0.715343 0.00570857 1.70755e-006 0.457192 0.715371 0 
-0.100441 -0.0600919 0.0317402 -1.19927e-012 -4.07759e-008 -5.10956e-006 0 -0 0 0 -0 0 0 -0 0 -0.711546 0.287997 -0 -7.85474 -33.0331 -21.8176 -36.0515 -46.2006 -38.532 8.85306 5.78051 4.08341 -88.9084 30.3171 81.3086 -22.516 -25.0466 7.09087 1.5899 -10.3181 -4.78655 2.806 0.323148 -4.28813 -0.755961 -1.85524 -12.922 11.5766 1.60531 -3.75476 -42.9181 44.6073 17.2485 11.4158 24.7426 -14.365 39.6433 42.1182 43.9035 3.49705 2.47655 -3.44371 76.7349 -12.5026 84.078 13.7419 7.87903 -5.29293 -1.10203 8.30766 6.05227 -6.02987 -0.0621086 0.614555 4.34674 -0.81423 14.3229 -8.21152 -6.13145 -1.27277 40.0679 -42.2583 -15.098 -0.468635 -0.715342 0.00585096 0.0240216 0.444577 0.715371 0 -0.457229 -0.715343 0.00570857 2.41484e-006 0.457191 0.715371 0 
-0.100441 -0.0600919 0.0317402 5.39238e-013 -4.07759e-008 -5.10956e-006 0 -0 0 0 -0 0 0 -0 0 -0.711546 0.287997 -0 -7.85474 -33.0331 -21.8176 -36.0515 -46.2006 -38.532 8.85306 5.78051 4.08341 -88.9084 30.3171 81.3086 -22.516 -25.0466 7.09087 1.5899 -10.3181 -4.78655 2.806 0.323148 -4.28813 -0.755961 -1.85524 -12.922 11.5766 1.60531 -3.75476 -42.9181 44.6073 17.2485 11.4158 24.7426 -14.365 39.6433 42.1182 43.9035 3.49705 2.47655 -3.44371 76.7349 -12.5026 84.078 13.7419 7.87903 -5.29293 -1.10203 8.30766 6.05227 -6.02987 -0.0621086 0.614555 4.34674 -0.81423 14.3229 -8.21152 -6.13145 -1.27277 40.0679 -42.2583 -15.098 -0.468635 -0.715342 0.00585096 0.0240216 0.444577 0.715371 0 -0.457229 -0.715343 0.00570857 2.41484e-006 0.457191 0.715371 0 
-0.100441 -0.0600919 0.0317402 5.74806e-013 -4.07759e-008 -5.10956e-006 0 -0 0 0 -0 0 0 -0 0 -0.711546 0.287997 -0 -7.85474 -33.0331 -21.8176 -36.0515 -46.2006 -38.532 8.85306 5.78051 4.08341 -88.9084 30.3171 81.3086 -22.516 -25.0466 7.09087 1.5899 -10.3181 -4.78655 2.806 0.323148 -4.28813 -0.755961 -1.85524 -12.922 11.5766 1.60531 -3.75476 -42.9181 44.6073 17.2485 11.4158 24.7426 -14.365 39.6433 42.1182 43.9035 3.49705 2.47655 -3.44371 76.7349 -12.5026 84.078 13.7419 7.87903 -5.29293 -1.10203 8.30766 6.05227 -6.02987 -0.0621086 0.614555 4.34674 -0.81423 14.3229 -8.21152 -6.13145 -1.27277 40.0679 -42.2583 -15.098 -0.468635 -0.715342 0.00585096 0.0240216 0.444577 0.715371 0 -0.457229 -0.715343 0.00570857 3.84198e-008 0.457194 0.715371 0 
-0.100441 -0.0600919 0.0317402 8.6538e-013 -4.0776e-008 -5.10956e-006 0 -0 0 0 -0 0 0 -0 0 -0.711546 0.287997 -0 -7.85474 -33.0331 -21.8176 -36.0515 -46.2006 -38.532 8.85306 5.78051 4.08341 -88.9084 30.3171 81.3086 -22.516 -25.0466 7.09087 1.5899 -10.3181 -4.78655 2.806 0.323148 -4.28813 -0.755961 -1.85524 -12.922 11.5766 1.60531 -3.75476 -42.9181 44.6073 17.2485 11.4158 24.7426 -14.365 39.6433 42.1182 43.9035 3.49705 2.47655 -3.44371 76.7349 -12.5026 84.078 13.7419 7.87903 -5.29293 -1.10203 8.30766 6.05227 -6.02987 -0.0621086 0.614555 4.34674 -0.81423 14.3229 -8.21152 -6.13145 -1.27277 40.0679 -42.2583 -15.098 -0.468635 -0.715342 0.00585096 0.0240216 0.444577 0.715371 0 -0.457229 -0.715343 0.00570857 2.35447e-006 0.457191 0.715371 0 
-0.100441 -0.0600919 0.0317402 7.03867e-013 -4.07759e-008 -5.10956e-006 0 -0 0 0 -0 0 0 -0 0 -0.711546 0.287997 -0 -7.85474 -33.0331 -21.8176 -36.0515 -46.2006 -38.532 8.85306 5.78051 4.08341 -88.9084 30.3171 81.3086 -22.516 -25.0466 7.09087 1.5899 -10.3181 -4.78655 2.806 0.323148 -4.28813 -0.755961 -1.85524 -12.922 11.5766 1.60531 -3.75476 -42.9181 44.6073 17.2485 11.4158 24.7426 -14.365 39.6433 42.1182 43.9035 3.49705 2.47655 -3.44371 76.7349 -12.5026 84.078 13.7419 7.87903 -5.29293 -1.10203 8.30766 6.05227 -6.02987 -0.0621086 0.614555 4.34674 -0.81423 14.3229 -8.21152 -6.13145 -1.27277 40.0679 -42.2583 -15.098 -0.468635 -0.715342 0.00585096 0.0240216 0.444577 0.715371 0 -0.457229 -0.715343 0.00570857 2.41484e-006 0.457191 0.715371 0 
-0.100441 -0.0600919 0.0317402 -8.79913e-014 -4.0776e-008 -5.10956e-006 0 -0 0 0 -0 0 0 -0 0 -0.711546 0.287997 -0 -7.85474 -33.0331 -21.8176 -36.0515 -46.2006 -38.532 8.85306 5.78051 4.08341 -88.9084 30.3171 81.3086 -22.516 -25.0466 7.09087 1.5899 -10.3181 -4.78655 2.806 0.323148 -4.28813 -0.755961 -1.85524 -12.922 11.5766 1.60531 -3.75476 -42.9181 44.6073 17.2485 11.4158 24.7426 -14.365 39.6433 42.1182 43.9035 3.49705 2.47655 -3.44371 76.7349 -12.5026 84.078 13.7419 7.87903 -5.29293 -1.10203 8.30766 6.05227 -6.02987 -0.0621086 0.614555 4.34674 -0.81423 14.3229 -8.21152 -6.13145 -1.27277 40.0679 -42.2583 -15.098 -0.468635 -0.715342 0.00585096 0.0240216 0.444577 0.715371 0 -0.457229 -0.715343 0.00570857 2.41484e-006 0.457191 0.715371 0 
